<svg width="24" height="25" viewBox="0 0 24 25" fill="none" xmlns="http://www.w3.org/2000/svg">
<path d="M11 16.0932L7 12.0932M7 12.0932L11 8.09324M7 12.0932H21M16 16.0932V17.0932C16 17.8889 15.6839 18.652 15.1213 19.2146C14.5587 19.7772 13.7956 20.0932 13 20.0932H6C5.20435 20.0932 4.44129 19.7772 3.87868 19.2146C3.31607 18.652 3 17.8889 3 17.0932V7.09324C3 6.29759 3.31607 5.53453 3.87868 4.97192C4.44129 4.40931 5.20435 4.09324 6 4.09324H13C13.7956 4.09324 14.5587 4.40931 15.1213 4.97192C15.6839 5.53453 16 6.29759 16 7.09324V8.09324" stroke="white" stroke-width="2" stroke-linecap="round" stroke-linejoin="round"/>
</svg>
