<svg width="32" height="33" viewBox="0 0 32 33" fill="none" xmlns="http://www.w3.org/2000/svg">
<path d="M16 24.7599C20.7865 24.7599 24.6667 20.8797 24.6667 16.0932C24.6667 11.3068 20.7865 7.42657 16 7.42657C11.2136 7.42657 7.33337 11.3068 7.33337 16.0932C7.33337 20.8797 11.2136 24.7599 16 24.7599Z" stroke="white" stroke-width="1.5" stroke-linecap="round" stroke-linejoin="round"/>
<path d="M25.52 25.6132L25.3466 25.4399M25.3466 6.74658L25.52 6.57324L25.3466 6.74658ZM6.47996 25.6132L6.65329 25.4399L6.47996 25.6132ZM16 2.86658V2.75991V2.86658ZM16 29.4266V29.3199V29.4266ZM2.77329 16.0932H2.66663H2.77329ZM29.3333 16.0932H29.2266H29.3333ZM6.65329 6.74658L6.47996 6.57324L6.65329 6.74658Z" stroke="white" stroke-width="2" stroke-linecap="round" stroke-linejoin="round"/>
</svg>
