<svg width="14" height="16" viewBox="0 0 14 16" fill="none" xmlns="http://www.w3.org/2000/svg">
<path d="M6.75 12.8906L2.10938 8.26562C1.9625 8.11875 1.9625 7.88125 2.10938 7.73438L6.75 3.10938C6.89687 2.9625 7.13438 2.9625 7.28125 3.10938L7.50313 3.33125C7.65 3.47812 7.65 3.71562 7.50313 3.8625L3.87812 7.46875H13.625C13.8313 7.46875 14 7.6375 14 7.84375V8.15625C14 8.3625 13.8313 8.53125 13.625 8.53125H3.87812L7.5 12.1375C7.64687 12.2844 7.64687 12.5219 7.5 12.6687L7.27812 12.8906C7.13437 13.0375 6.89687 13.0375 6.75 12.8906ZM0.375 14H0.625C0.83125 14 1 13.8313 1 13.625V2.375C1 2.16875 0.83125 2 0.625 2H0.375C0.16875 2 0 2.16875 0 2.375V13.625C0 13.8313 0.16875 14 0.375 14Z" fill="#64A0FF"/>
</svg>
