<svg width="48" height="48" viewBox="0 0 48 48" fill="none" xmlns="http://www.w3.org/2000/svg">
<path d="M28.632 18.1954C28.3549 17.4163 27.8439 16.7418 27.1688 16.2644C26.4937 15.7869 25.6875 15.5297 24.8606 15.528H21.7646C20.8813 15.5234 20.0277 15.8464 19.3688 16.4347C18.7099 17.023 18.2926 17.8346 18.1975 18.7128C18.1024 19.5909 18.3363 20.4731 18.8539 21.1888C19.3716 21.9045 20.1362 22.4028 21 22.5874L25.7143 23.616C26.6782 23.827 27.5302 24.3868 28.1065 25.1879C28.6828 25.9889 28.9428 26.9746 28.8364 27.9556C28.7301 28.9367 28.265 29.8438 27.5305 30.5028C26.796 31.1618 25.8439 31.5261 24.8571 31.5257H22.1931C20.4514 31.5257 18.9703 30.4149 18.4217 28.8617M23.5269 15.528V11.5269M23.5269 35.5269V31.5291M6.85028 46.2789V37.7074H15.4217" stroke="#326CED" stroke-width="3" stroke-linecap="round" stroke-linejoin="round"/>
<path d="M45.9017 19.8995C46.8119 24.7516 46.0852 29.7687 43.8357 34.1632C41.5862 38.5577 37.9412 42.0808 33.4727 44.1797C29.0043 46.2785 23.9655 46.8343 19.1471 45.7597C14.3287 44.6851 10.0035 42.041 6.8503 38.2423M2.0983 28.1006C1.18809 23.2485 1.91479 18.2314 4.16431 13.8369C6.41384 9.44246 10.0589 5.9193 14.5273 3.82044C18.9957 1.72158 24.0345 1.16584 28.8529 2.24044C33.6714 3.31504 37.9966 5.95915 41.1497 9.75777" stroke="#326CED" stroke-width="3" stroke-linecap="round" stroke-linejoin="round"/>
<path d="M41.1497 1.72119V10.2926H32.5783" stroke="#326CED" stroke-width="3" stroke-linecap="round" stroke-linejoin="round"/>
</svg>
