<svg width="18" height="16" viewBox="0 0 18 16" fill="none" xmlns="http://www.w3.org/2000/svg">
<g clip-path="url(#clip0_494_498)">
<path d="M9.00004 9C9.53048 9 10.0392 8.78929 10.4143 8.41421C10.7893 8.03914 11 7.53043 11 7C11 6.46957 10.7893 5.96086 10.4143 5.58579C10.0392 5.21071 9.53048 5 9.00004 5C8.96879 5 8.94129 5.0075 8.91098 5.00906C9.00736 5.27447 9.02603 5.56187 8.96481 5.83752C8.90359 6.11317 8.76502 6.36565 8.56536 6.56531C8.36569 6.76498 8.11322 6.90355 7.83757 6.96477C7.56191 7.02599 7.27452 7.00731 7.00911 6.91094C7.00911 6.94219 7.00004 6.96969 7.00004 7C7.00004 7.26264 7.05177 7.52272 7.15228 7.76537C7.25279 8.00802 7.40011 8.2285 7.58583 8.41421C7.9609 8.78929 8.46961 9 9.00004 9ZM17.8913 7.54375C16.1966 4.23719 12.8416 2 9.00004 2C5.15848 2 1.80254 4.23875 0.108794 7.54406C0.037307 7.68547 6.10352e-05 7.8417 6.10352e-05 8.00016C6.10352e-05 8.15861 0.037307 8.31484 0.108794 8.45625C1.80348 11.7628 5.15848 14 9.00004 14C12.8416 14 16.1975 11.7612 17.8913 8.45594C17.9628 8.31453 18 8.1583 18 7.99984C18 7.84139 17.9628 7.68516 17.8913 7.54375ZM9.00004 3C9.79117 3 10.5645 3.2346 11.2223 3.67412C11.8801 4.11365 12.3928 4.73836 12.6956 5.46927C12.9983 6.20017 13.0775 7.00444 12.9232 7.78036C12.7688 8.55629 12.3879 9.26902 11.8285 9.82843C11.2691 10.3878 10.5563 10.7688 9.78041 10.9231C9.00448 11.0775 8.20021 10.9983 7.46931 10.6955C6.73841 10.3928 6.11369 9.88008 5.67417 9.22228C5.23464 8.56448 5.00004 7.79113 5.00004 7C5.0012 5.93949 5.423 4.92275 6.1729 4.17285C6.92279 3.42296 7.93953 3.00116 9.00004 3ZM9.00004 13C5.64504 13 2.57942 11.0841 1.00004 8C1.8883 6.25622 3.30882 4.84063 5.05567 3.95844C4.40348 4.80281 4.00004 5.84906 4.00004 7C4.00004 8.32608 4.52683 9.59785 5.46451 10.5355C6.40219 11.4732 7.67396 12 9.00004 12C10.3261 12 11.5979 11.4732 12.5356 10.5355C13.4733 9.59785 14 8.32608 14 7C14 5.84906 13.5966 4.80281 12.9444 3.95844C14.6913 4.84063 16.1118 6.25622 17 8C15.421 11.0841 12.355 13 9.00004 13Z" fill="#606060"/>
</g>
<defs>
<clipPath id="clip0_494_498">
<rect width="18" height="16" fill="white"/>
</clipPath>
</defs>
</svg>
