<svg width="16" height="18" viewBox="0 0 16 18" fill="none" xmlns="http://www.w3.org/2000/svg">
<g clip-path="url(#clip0_864_466)">
<path d="M7.99773 4.95708C5.72515 4.95708 3.89208 6.76059 3.89208 8.99653C3.89208 11.2325 5.72515 13.036 7.99773 13.036C10.2703 13.036 12.1034 11.2325 12.1034 8.99653C12.1034 6.76059 10.2703 4.95708 7.99773 4.95708ZM7.99773 11.6227C6.52913 11.6227 5.32852 10.445 5.32852 8.99653C5.32852 7.54809 6.52555 6.37036 7.99773 6.37036C9.4699 6.37036 10.6669 7.54809 10.6669 8.99653C10.6669 10.445 9.46633 11.6227 7.99773 11.6227ZM13.2289 4.79184C13.2289 5.31567 12.8002 5.73403 12.2713 5.73403C11.7389 5.73403 11.3137 5.31216 11.3137 4.79184C11.3137 4.27153 11.7425 3.84966 12.2713 3.84966C12.8002 3.84966 13.2289 4.27153 13.2289 4.79184ZM15.9482 5.74809C15.8874 4.48598 15.5944 3.36802 14.6547 2.44692C13.7185 1.52583 12.5822 1.23755 11.2994 1.17427C9.9773 1.10044 6.01458 1.10044 4.69248 1.17427C3.41327 1.23403 2.27698 1.52231 1.33722 2.44341C0.397455 3.3645 0.108023 4.48247 0.0437052 5.74458C-0.0313327 7.04536 -0.0313327 10.9442 0.0437052 12.245C0.10445 13.5071 0.397455 14.625 1.33722 15.5461C2.27698 16.4672 3.40969 16.7555 4.69248 16.8188C6.01458 16.8926 9.9773 16.8926 11.2994 16.8188C12.5822 16.759 13.7185 16.4707 14.6547 15.5461C15.5908 14.625 15.8839 13.5071 15.9482 12.245C16.0232 10.9442 16.0232 7.04887 15.9482 5.74809ZM14.2402 13.6407C13.9615 14.3297 13.4219 14.8606 12.718 15.1383C11.6639 15.5496 9.1626 15.4547 7.99773 15.4547C6.83285 15.4547 4.32801 15.5461 3.27748 15.1383C2.57713 14.8641 2.03757 14.3332 1.75528 13.6407C1.33722 12.6036 1.43369 10.1426 1.43369 8.99653C1.43369 7.85044 1.34079 5.38598 1.75528 4.35239C2.034 3.66333 2.57356 3.13247 3.27748 2.85474C4.33159 2.44341 6.83285 2.53833 7.99773 2.53833C9.1626 2.53833 11.6674 2.44692 12.718 2.85474C13.4183 3.12895 13.9579 3.65981 14.2402 4.35239C14.6582 5.3895 14.5618 7.85044 14.5618 8.99653C14.5618 10.1426 14.6582 12.6071 14.2402 13.6407Z" fill="white"/>
</g>
<defs>
<clipPath id="clip0_864_466">
<rect width="16.0081" height="18" fill="white" transform="translate(-0.00994873)"/>
</clipPath>
</defs>
</svg>
