<svg width="16" height="15" viewBox="0 0 16 15" fill="none" xmlns="http://www.w3.org/2000/svg">
<g clip-path="url(#clip0_864_470)">
<path d="M3.62855 15V4.87953H0.196507L0.196507 15H3.62855ZM1.91297 3.49692C3.10978 3.49692 3.85474 2.71978 3.85474 1.74862C3.83244 0.755565 3.10983 0 1.93568 0C0.761719 0 -0.00598145 0.75558 -0.00598145 1.74862C-0.00598145 2.71983 0.738793 3.49692 1.89057 3.49692H1.91286H1.91297ZM5.52817 15H8.96021V9.34824C8.96021 9.04576 8.98251 8.7436 9.07314 8.52738C9.32125 7.92304 9.88596 7.29712 10.834 7.29712C12.0759 7.29712 12.5728 8.2252 12.5728 9.5857V14.9999H16.0046V9.19695C16.0046 6.08833 14.3114 4.64193 12.0533 4.64193C10.2019 4.64193 9.38899 5.65626 8.93738 6.34711H8.96029V4.87932H5.52825C5.57329 5.82897 5.52825 14.9998 5.52825 14.9998L5.52817 15Z" fill="white"/>
</g>
<defs>
<clipPath id="clip0_864_470">
<rect width="16.0081" height="15" fill="white" transform="translate(-0.00598145)"/>
</clipPath>
</defs>
</svg>
