<svg width="42" height="44" viewBox="0 0 42 44" fill="none" xmlns="http://www.w3.org/2000/svg">
<path d="M20.996 2C14.98 2 11.08 6.038 6.468 7.51C4.592 8.11 3.654 8.408 3.274 8.83C2.894 9.25 2.784 9.868 2.562 11.1C0.182002 24.292 5.382 36.488 17.782 41.236C19.112 41.746 19.778 42 21.002 42C22.226 42 22.894 41.744 24.226 41.234C36.624 36.488 41.818 24.292 39.438 11.1C39.216 9.868 39.104 9.25 38.724 8.828C38.344 8.406 37.408 8.108 35.532 7.51C30.918 6.038 27.012 2 20.996 2Z" stroke="#326CED" stroke-width="3" stroke-linecap="round" stroke-linejoin="round"/>
<path d="M17.5 17.9179C17.5 17.7979 17.516 17.1059 17.52 16.2379C17.52 15.4419 17.452 14.6779 17.832 13.9779C19.252 11.1499 23.332 11.4379 24.34 14.3179C24.514 14.7919 24.526 15.5419 24.52 16.2379C24.514 17.1239 24.532 17.9179 24.532 17.9179M17.674 18.7599C15.514 18.7599 14.434 20.3199 14.194 21.2799C13.954 22.2399 13.954 25.7199 14.098 27.1599C14.578 28.9599 15.778 29.7039 16.954 29.9439C18.034 30.0399 22.594 30.0039 23.914 30.0039C25.834 30.0399 27.274 29.3199 27.874 27.1599C27.994 26.4399 28.114 22.4799 27.814 21.2799C27.178 19.3599 25.594 18.7599 24.394 18.7599H17.674Z" stroke="#326CED" stroke-width="3" stroke-linecap="round" stroke-linejoin="round"/>
</svg>
