<svg width="48" height="48" viewBox="0 0 48 48" fill="none" xmlns="http://www.w3.org/2000/svg">
<path d="M30 48H18V41.91C17.9688 41.6455 17.8678 41.3941 17.7073 41.1815C17.5467 40.969 17.3325 40.8031 17.0866 40.7007C16.8407 40.5984 16.572 40.5634 16.3081 40.5993C16.0442 40.6352 15.7946 40.7407 15.585 40.905L11.265 45.21L2.79 36.735L7.095 32.43C7.28736 32.2374 7.41848 31.9923 7.47186 31.7254C7.52524 31.4585 7.4985 31.1817 7.395 30.93C7.29544 30.6676 7.11908 30.4414 6.88894 30.2808C6.65881 30.1203 6.3856 30.0329 6.105 30.03H0V18H6.09C6.36502 17.9985 6.63333 17.9149 6.86051 17.7599C7.08769 17.6049 7.26336 17.3856 7.365 17.13C7.46653 16.879 7.49364 16.6041 7.4431 16.3381C7.39256 16.0721 7.26651 15.8263 7.08 15.63L2.79 11.265L11.265 2.79L15.57 7.095C15.7796 7.26325 16.0305 7.37211 16.2966 7.41019C16.5626 7.44827 16.834 7.41416 17.0823 7.31145C17.3307 7.20873 17.5469 7.04118 17.7083 6.82631C17.8698 6.61143 17.9705 6.35713 18 6.09V0H30V6.09C30.0312 6.35451 30.1322 6.60594 30.2927 6.81847C30.4533 7.031 30.6675 7.19695 30.9134 7.29928C31.1593 7.40161 31.428 7.43662 31.6919 7.40072C31.9558 7.36482 32.2054 7.2593 32.415 7.095L36.72 2.79L45.21 11.28L40.905 15.585C40.7126 15.7776 40.5815 16.0227 40.5281 16.2896C40.4748 16.5565 40.5015 16.8333 40.605 17.085C40.7046 17.3474 40.8809 17.5736 41.1111 17.7341C41.3412 17.8947 41.6144 17.9821 41.895 17.985H48V29.985H41.91C41.635 29.9865 41.3667 30.0701 41.1395 30.2251C40.9123 30.3801 40.7366 30.5994 40.635 30.855C40.5335 31.106 40.5064 31.3809 40.5569 31.6469C40.6074 31.9129 40.7335 32.1587 40.92 32.355L45.225 36.66L36.735 45.15L32.43 40.845C32.2204 40.6807 31.9708 40.5752 31.7069 40.5393C31.443 40.5034 31.1743 40.5384 30.9284 40.6407C30.6825 40.7431 30.4683 40.909 30.3077 41.1215C30.1472 41.3341 30.0462 41.5855 30.015 41.85L30 48ZM21 45H27V41.91C27.0432 41.0612 27.3259 40.242 27.8154 39.5472C28.3049 38.8525 28.9811 38.3105 29.7658 37.9841C30.5505 37.6576 31.4116 37.5601 32.2494 37.7027C33.0872 37.8453 33.8675 38.2223 34.5 38.79L36.69 40.98L40.935 36.735L38.79 34.5C38.2223 33.8675 37.8453 33.0872 37.7027 32.2494C37.5601 31.4116 37.6576 30.5505 37.9841 29.7658C38.3105 28.9811 38.8525 28.3049 39.5472 27.8154C40.242 27.3259 41.0612 27.0432 41.91 27H45V21H41.91C41.0612 20.9568 40.242 20.6741 39.5472 20.1846C38.8525 19.6951 38.3105 19.0189 37.9841 18.2342C37.6576 17.4495 37.5601 16.5884 37.7027 15.7506C37.8453 14.9128 38.2223 14.1325 38.79 13.5L40.98 11.31L36.735 7.035L34.5 9.21C33.8675 9.77769 33.0872 10.1547 32.2494 10.2973C31.4116 10.4399 30.5505 10.3424 29.7658 10.0159C28.9811 9.68951 28.3049 9.14754 27.8154 8.45276C27.3259 7.75797 27.0432 6.93878 27 6.09V3H21V6.09C20.9568 6.93878 20.6741 7.75797 20.1846 8.45276C19.6951 9.14754 19.0189 9.68951 18.2342 10.0159C17.4495 10.3424 16.5884 10.4399 15.7506 10.2973C14.9128 10.1547 14.1325 9.77769 13.5 9.21L11.265 7.035L7.035 11.265L9.21 13.5C9.77769 14.1325 10.1547 14.9128 10.2973 15.7506C10.4399 16.5884 10.3424 17.4495 10.0159 18.2342C9.68951 19.0189 9.14754 19.6951 8.45276 20.1846C7.75797 20.6741 6.93878 20.9568 6.09 21H3V27H6.09C6.93878 27.0432 7.75797 27.3259 8.45276 27.8154C9.14754 28.3049 9.68951 28.9811 10.0159 29.7658C10.3424 30.5505 10.4399 31.4116 10.2973 32.2494C10.1547 33.0872 9.77769 33.8675 9.21 34.5L7.035 36.735L11.28 40.98L13.5 38.79C14.1325 38.2223 14.9128 37.8453 15.7506 37.7027C16.5884 37.5601 17.4495 37.6576 18.2342 37.9841C19.0189 38.3105 19.6951 38.8525 20.1846 39.5472C20.6741 40.242 20.9568 41.0612 21 41.91V45Z" fill="#326CED"/>
</svg>
