<svg width="48" height="45" viewBox="0 0 48 45" fill="none" xmlns="http://www.w3.org/2000/svg">
<path d="M42 27H48V45H24V27H30V21H42V27ZM33 27H39V24H33V27ZM45 36H42V39H39V36H33V39H30V36H27V42H45V36ZM27 30V33H45V30H27ZM21 18C21 19.4531 20.6797 20.8125 20.0391 22.0781C19.3984 23.3438 18.4844 24.4062 17.2969 25.2656C18 25.625 18.6641 26.0391 19.2891 26.5078C19.9141 26.9766 20.4844 27.5 21 28.0781V36C21 34.7656 20.7656 33.6016 20.2969 32.5078C19.8281 31.4141 19.1875 30.4609 18.375 29.6484C17.5625 28.8359 16.6016 28.1875 15.4922 27.7031C14.3828 27.2188 13.2188 26.9844 12 27C10.75 27 9.58594 27.2344 8.50781 27.7031C7.42969 28.1719 6.47656 28.8125 5.64844 29.625C4.82031 30.4375 4.17188 31.3984 3.70312 32.5078C3.23438 33.6172 3 34.7812 3 36H0C0 34.8594 0.15625 33.7578 0.46875 32.6953C0.78125 31.6328 1.22656 30.625 1.80469 29.6719C2.38281 28.7188 3.09375 27.875 3.9375 27.1406C4.78125 26.4062 5.70312 25.7734 6.70312 25.2422C5.53125 24.3984 4.625 23.3438 3.98438 22.0781C3.34375 20.8125 3.01562 19.4531 3 18C3 16.7656 3.23438 15.6016 3.70312 14.5078C4.17188 13.4141 4.8125 12.4609 5.625 11.6484C6.4375 10.8359 7.39062 10.1875 8.48438 9.70312C9.57812 9.21875 10.75 8.98438 12 9C13.125 9 14.1953 9.19531 15.2109 9.58594C16.2266 9.97656 17.1562 10.5547 18 11.3203C18.5 10.8672 19.0547 10.4688 19.6641 10.125C19.1328 9.57812 18.7266 8.94531 18.4453 8.22656C18.1641 7.50781 18.0156 6.76562 18 6C18 5.17188 18.1562 4.39844 18.4688 3.67969C18.7812 2.96094 19.2109 2.32031 19.7578 1.75781C20.3047 1.19531 20.9375 0.765625 21.6562 0.46875C22.375 0.171875 23.1562 0.015625 24 0C24.8281 0 25.6016 0.15625 26.3203 0.46875C27.0391 0.78125 27.6797 1.21094 28.2422 1.75781C28.8047 2.30469 29.2344 2.9375 29.5312 3.65625C29.8281 4.375 29.9844 5.15625 30 6C30 6.76562 29.8594 7.50781 29.5781 8.22656C29.2969 8.94531 28.8828 9.57812 28.3359 10.125C29.6328 10.8438 30.6875 11.8125 31.5 13.0312C32.3125 11.8125 33.3672 10.8438 34.6641 10.125C34.1328 9.57812 33.7266 8.94531 33.4453 8.22656C33.1641 7.50781 33.0156 6.76562 33 6C33 5.17188 33.1562 4.39844 33.4688 3.67969C33.7812 2.96094 34.2109 2.32031 34.7578 1.75781C35.3047 1.19531 35.9375 0.765625 36.6562 0.46875C37.375 0.171875 38.1562 0.015625 39 0C39.8281 0 40.6016 0.15625 41.3203 0.46875C42.0391 0.78125 42.6797 1.21094 43.2422 1.75781C43.8047 2.30469 44.2344 2.9375 44.5312 3.65625C44.8281 4.375 44.9844 5.15625 45 6C45 6.76562 44.8594 7.50781 44.5781 8.22656C44.2969 8.94531 43.8828 9.57812 43.3359 10.125C44.0547 10.5156 44.7031 10.9922 45.2812 11.5547C45.8594 12.1172 46.3438 12.7344 46.7344 13.4062C47.125 14.0781 47.4375 14.8125 47.6719 15.6094C47.9062 16.4062 48.0156 17.2031 48 18H45C45 17.1719 44.8438 16.3984 44.5312 15.6797C44.2188 14.9609 43.7891 14.3203 43.2422 13.7578C42.6953 13.1953 42.0625 12.7656 41.3438 12.4688C40.625 12.1719 39.8438 12.0156 39 12C38.1719 12 37.3984 12.1562 36.6797 12.4688C35.9609 12.7812 35.3203 13.2109 34.7578 13.7578C34.1953 14.3047 33.7656 14.9375 33.4688 15.6562C33.1719 16.375 33.0156 17.1562 33 18H30C30 17.1719 29.8438 16.3984 29.5312 15.6797C29.2188 14.9609 28.7891 14.3203 28.2422 13.7578C27.6953 13.1953 27.0625 12.7656 26.3438 12.4688C25.625 12.1719 24.8438 12.0156 24 12C23.2344 12 22.4922 12.1406 21.7734 12.4219C21.0547 12.7031 20.4219 13.1172 19.875 13.6641C20.25 14.3203 20.5312 15.0156 20.7188 15.75C20.9062 16.4844 21 17.2344 21 18ZM39 3C38.5781 3 38.1875 3.07812 37.8281 3.23438C37.4688 3.39062 37.1562 3.60156 36.8906 3.86719C36.625 4.13281 36.4062 4.45312 36.2344 4.82812C36.0625 5.20312 35.9844 5.59375 36 6C36 6.42188 36.0781 6.8125 36.2344 7.17188C36.3906 7.53125 36.6016 7.84375 36.8672 8.10938C37.1328 8.375 37.4531 8.59375 37.8281 8.76562C38.2031 8.9375 38.5938 9.01562 39 9C39.4219 9 39.8125 8.92188 40.1719 8.76562C40.5312 8.60938 40.8438 8.39844 41.1094 8.13281C41.375 7.86719 41.5938 7.54688 41.7656 7.17188C41.9375 6.79688 42.0156 6.40625 42 6C42 5.57812 41.9219 5.1875 41.7656 4.82812C41.6094 4.46875 41.3984 4.15625 41.1328 3.89062C40.8672 3.625 40.5469 3.40625 40.1719 3.23438C39.7969 3.0625 39.4062 2.98438 39 3ZM24 3C23.5781 3 23.1875 3.07812 22.8281 3.23438C22.4688 3.39062 22.1562 3.60156 21.8906 3.86719C21.625 4.13281 21.4062 4.45312 21.2344 4.82812C21.0625 5.20312 20.9844 5.59375 21 6C21 6.42188 21.0781 6.8125 21.2344 7.17188C21.3906 7.53125 21.6016 7.84375 21.8672 8.10938C22.1328 8.375 22.4531 8.59375 22.8281 8.76562C23.2031 8.9375 23.5938 9.01562 24 9C24.4219 9 24.8125 8.92188 25.1719 8.76562C25.5312 8.60938 25.8438 8.39844 26.1094 8.13281C26.375 7.86719 26.5938 7.54688 26.7656 7.17188C26.9375 6.79688 27.0156 6.40625 27 6C27 5.57812 26.9219 5.1875 26.7656 4.82812C26.6094 4.46875 26.3984 4.15625 26.1328 3.89062C25.8672 3.625 25.5469 3.40625 25.1719 3.23438C24.7969 3.0625 24.4062 2.98438 24 3ZM12 24C12.8281 24 13.6016 23.8438 14.3203 23.5312C15.0391 23.2188 15.6797 22.7891 16.2422 22.2422C16.8047 21.6953 17.2344 21.0625 17.5312 20.3438C17.8281 19.625 17.9844 18.8438 18 18C18 17.1719 17.8438 16.3984 17.5312 15.6797C17.2188 14.9609 16.7891 14.3203 16.2422 13.7578C15.6953 13.1953 15.0625 12.7656 14.3438 12.4688C13.625 12.1719 12.8438 12.0156 12 12C11.1719 12 10.3984 12.1562 9.67969 12.4688C8.96094 12.7812 8.32031 13.2109 7.75781 13.7578C7.19531 14.3047 6.76562 14.9375 6.46875 15.6562C6.17188 16.375 6.01562 17.1562 6 18C6 18.8281 6.15625 19.6016 6.46875 20.3203C6.78125 21.0391 7.21094 21.6797 7.75781 22.2422C8.30469 22.8047 8.9375 23.2344 9.65625 23.5312C10.375 23.8281 11.1562 23.9844 12 24Z" fill="#326CED"/>
</svg>
