<svg width="32" height="33" viewBox="0 0 32 33" fill="none" xmlns="http://www.w3.org/2000/svg">
<path d="M16 24.7599C20.7865 24.7599 24.6667 20.8797 24.6667 16.0932C24.6667 11.3068 20.7865 7.42657 16 7.42657C11.2135 7.42657 7.33334 11.3068 7.33334 16.0932C7.33334 20.8797 11.2135 24.7599 16 24.7599Z" stroke="white" stroke-width="1.5" stroke-linecap="round" stroke-linejoin="round"/>
<path d="M25.52 25.6132L25.3467 25.4399M25.3467 6.74658L25.52 6.57324L25.3467 6.74658ZM6.48 25.6132L6.65333 25.4399L6.48 25.6132ZM16 2.86658V2.75991V2.86658ZM16 29.4266V29.3199V29.4266ZM2.77333 16.0932H2.66666H2.77333ZM29.3333 16.0932H29.2267H29.3333ZM6.65333 6.74658L6.48 6.57324L6.65333 6.74658Z" stroke="white" stroke-width="2" stroke-linecap="round" stroke-linejoin="round"/>
</svg>
