<svg width="18" height="14" viewBox="0 0 18 14" fill="none" xmlns="http://www.w3.org/2000/svg">
<g clip-path="url(#clip0_864_474)">
<path d="M18.0064 1.70465C17.332 1.98912 16.6167 2.17585 15.8842 2.25862C16.6472 1.82322 17.233 1.13373 17.5088 0.312223C16.7835 0.722031 15.9901 1.01077 15.1626 1.16595C14.4886 0.482233 13.5284 0.0549316 12.4657 0.0549316C10.4252 0.0549316 8.77079 1.63017 8.77079 3.57302C8.77079 3.8488 8.8035 4.11727 8.86646 4.37483C5.79577 4.22807 3.0733 2.82747 1.25093 0.698931C0.932954 1.21854 0.750752 1.82295 0.750752 2.46762C0.750752 3.68823 1.40309 4.76502 2.39444 5.39596C1.8077 5.37846 1.23387 5.22757 0.720854 4.95587C0.720643 4.9706 0.720643 4.98534 0.720643 5.00014C0.720643 6.70473 1.99423 8.1267 3.68441 8.4499C3.14033 8.5908 2.56962 8.61142 2.01589 8.51019C2.48603 9.90791 3.85057 10.925 5.46731 10.9535C4.2028 11.897 2.60963 12.4595 0.878645 12.4595C0.580369 12.4595 0.286314 12.4428 -0.00274658 12.4104C1.63235 13.4086 3.57446 13.991 5.66098 13.991C12.4571 13.991 16.1734 8.63009 16.1734 3.98102C16.1734 3.82843 16.1699 3.67671 16.1627 3.52586C16.886 3.02794 17.5104 2.41123 18.0064 1.70465Z" fill="white"/>
</g>
<defs>
<clipPath id="clip0_864_474">
<rect width="18.0091" height="14" fill="white" transform="translate(-0.00268555)"/>
</clipPath>
</defs>
</svg>
